<svg width="1295" height="380" viewBox="0 0 1295 380" fill="none" xmlns="http://www.w3.org/2000/svg">
<path d="M668.955 230.496C656.469 237.634 639.3 238.368 622.028 231.042C608.043 225.153 596.439 214.846 589 203.069C592.571 206.014 596.736 208.37 601.199 210.43C619.037 218.704 636.871 218.137 649.421 210.451C649.413 210.443 649.408 210.438 649.402 210.43C631.549 196.885 616.374 179.217 605.068 164.79C602.687 162.434 600.901 159.489 599.116 156.839C612.803 169.206 634.525 184.812 642.26 189.23C625.897 172.151 611.316 150.951 611.91 151.539C637.797 177.451 661.9 192.175 661.9 192.175C662.697 192.619 663.313 192.99 663.807 193.321C664.329 192.008 664.787 190.644 665.172 189.23C669.338 174.213 664.578 157.133 654.163 143C678.263 157.428 692.547 184.518 686.594 207.192C686.439 207.804 686.27 208.407 686.088 209C686.158 209.082 686.227 209.167 686.297 209.255C698.197 223.978 694.925 239.583 693.438 236.639C686.982 224.137 675.031 227.96 668.955 230.497L668.955 230.496Z" fill="url(#paint0_linear)"/>
<path d="M95.3438 77.875C108.75 77.875 121.078 79.75 132.328 83.5C143.578 87.25 153.703 89.6875 162.703 90.8125C157.734 108.25 157.547 127.047 162.141 147.203C157.359 151.234 151.875 153.578 145.688 154.234C144.938 152.453 143.578 148.75 141.609 143.125C139.734 137.406 137.906 132.719 136.125 129.062C134.438 125.406 132.047 121.234 128.953 116.547C125.953 111.859 121.922 108.156 116.859 105.438C111.891 102.625 106.172 100.703 99.7031 99.6719C90.2344 100.516 82.9219 103.422 77.7656 108.391C72.6094 113.359 70.0312 119.781 70.0312 127.656C70.0312 135.719 72.0938 142.375 76.2188 147.625C80.3438 152.781 85.6875 156.672 92.25 159.297C98.9062 161.828 106.219 164.078 114.188 166.047C122.156 167.922 130.078 170.266 137.953 173.078C145.828 175.797 153.047 179.406 159.609 183.906C166.266 188.312 171.656 194.922 175.781 203.734C179.906 212.547 181.969 223.281 181.969 235.938C181.969 251.312 177.516 264.531 168.609 275.594C159.703 286.656 149.203 294.578 137.109 299.359C125.016 304.141 112.641 306.531 99.9844 306.531C72.1406 306.531 44.5781 300.391 17.2969 288.109C17.8594 276.016 18.1406 268.609 18.1406 265.891C18.1406 250.703 16.6875 234.391 13.7812 216.953C22.2188 212.922 31.6406 212.734 42.0469 216.391C45.5156 237.672 52.2188 253.984 62.1562 265.328C72.1875 276.672 83.1562 283 95.0625 284.312C106.219 283.562 114.797 279.953 120.797 273.484C126.891 266.922 129.938 258.625 129.938 248.594C129.938 240.156 127.969 233.031 124.031 227.219C120.094 221.312 114.891 216.766 108.422 213.578C101.953 210.297 94.9219 207.344 87.3281 204.719C79.8281 202.094 72.2344 199.328 64.5469 196.422C56.8594 193.422 49.7812 189.859 43.3125 185.734C36.9375 181.609 31.7812 175.844 27.8438 168.438C23.9062 161.031 21.9375 152.031 21.9375 141.438C21.9375 131.875 23.4375 123.297 26.4375 115.703C29.5312 108.109 33.5156 102.016 38.3906 97.4219C43.3594 92.8281 49.125 88.9844 55.6875 85.8906C62.3438 82.7969 68.9062 80.6875 75.375 79.5625C81.9375 78.4375 88.5938 77.875 95.3438 77.875ZM95.3438 83.6406C87.4688 83.6406 79.8281 84.5781 72.4219 86.4531C65.0156 88.2344 57.7969 91.1875 50.7656 95.3125C43.8281 99.4375 38.25 105.484 34.0312 113.453C29.8125 121.422 27.7031 130.75 27.7031 141.438C27.7031 150.906 29.6719 159.062 33.6094 165.906C37.5469 172.656 42.7031 177.906 49.0781 181.656C55.5469 185.406 62.625 188.734 70.3125 191.641C78 194.453 85.5938 197.312 93.0938 200.219C100.688 203.125 107.719 206.406 114.188 210.062C120.656 213.719 125.859 218.828 129.797 225.391C133.734 231.859 135.703 239.594 135.703 248.594C135.703 261.062 131.719 271.141 123.75 278.828C115.781 286.516 104.484 290.359 89.8594 290.359C75.7969 290.359 62.7188 284.5 50.625 272.781C38.5312 261.062 30.5625 243.531 26.7188 220.188C24.8438 218.969 22.6406 218.969 20.1094 220.188C22.6406 234.906 23.9062 250.141 23.9062 265.891C23.9062 270.297 23.7188 276.531 23.3438 284.594C46.5938 295.375 68.7656 300.766 89.8594 300.766C107.297 300.766 123.422 295.609 138.234 285.297C153.047 274.891 160.453 260.359 160.453 241.703C160.453 231.109 158.391 222.156 154.266 214.844C150.141 207.438 144.75 201.672 138.094 197.547C131.438 193.422 124.125 189.859 116.156 186.859C108.188 183.859 100.266 181.047 92.3906 178.422C84.5156 175.703 77.25 172.703 70.5938 169.422C64.0312 166.141 58.6875 161.5 54.5625 155.5C50.4375 149.406 48.375 142.047 48.375 133.422C48.375 121.328 52.4531 111.672 60.6094 104.453C68.7656 97.2344 80.3438 93.625 95.3438 93.625C121.406 93.625 139.359 111.672 149.203 147.766C152.109 148.234 154.125 147.578 155.25 145.797C152.156 122.922 145.359 106.844 134.859 97.5625C124.453 88.2812 111.281 83.6406 95.3438 83.6406ZM289.688 100.375C284.906 100.562 282.094 101.687 281.25 103.75C280.406 105.719 281.016 109.281 283.078 114.438L326.391 221.031L343.547 174.906L319.359 114.156C317.297 109.188 314.766 105.766 311.766 103.891C308.766 101.922 304.031 100.75 297.562 100.375C295.219 94.375 295.219 88.7969 297.562 83.6406H396.844C399.188 88.7969 399.188 94.375 396.844 100.375C386.719 100.75 380.109 102.156 377.016 104.594C373.922 106.938 373.172 110.219 374.766 114.438L414.984 220.188L454.5 114.438C456.375 109.281 455.719 105.859 452.531 104.172C449.438 102.391 443.156 101.125 433.688 100.375C431.438 94.375 431.438 88.7969 433.688 83.6406H517.219C519.562 88.7969 519.562 94.375 517.219 100.375C503.062 101.313 493.969 102.719 489.938 104.594C485.719 106.75 482.719 110.031 480.938 114.438L408.938 304.844H394.594L356.906 207.672L320.203 304.844H306.141L227.531 114.438C225.656 109.844 222.328 106.609 217.547 104.734C212.859 102.766 205.828 101.313 196.453 100.375C194.109 94.375 194.109 88.7969 196.453 83.6406H289.688C292.031 88.7969 292.031 94.375 289.688 100.375ZM284.906 88.2812H201.375C200.156 90.1562 200.156 92.3594 201.375 94.8906C218.25 96.5781 228.703 102.344 232.734 112.188L309.938 299.078H316.266L356.203 191.922L398.672 299.078H405L476.438 110.359C478.5 105.016 482.25 101.313 487.688 99.25C493.219 97.0938 501.047 95.6406 511.172 94.8906C512.391 92.3594 512.391 90.1562 511.172 88.2812H439.734C438.609 90.1562 438.609 92.3594 439.734 94.8906C450.891 96.2031 457.734 97.9375 460.266 100.094C463.359 102.531 464.016 105.953 462.234 110.359L407.531 257.594L351.984 112.188C349.828 107.125 352.031 103.188 358.594 100.375C365.156 97.4687 375.891 95.6406 390.797 94.8906C392.016 92.3594 392.016 90.1562 390.797 88.2812H302.484C301.266 90.1562 301.266 92.3594 302.484 94.8906C308.391 95.4531 313.031 97 316.406 99.5312C319.781 101.969 322.594 106.187 324.844 112.188L349.594 174.906L318.797 257.594L259.734 112.188C256.547 105.813 256.875 101.594 260.719 99.5312C264.562 97.375 272.625 95.8281 284.906 94.8906C286.031 92.3594 286.031 90.1562 284.906 88.2812ZM645.469 99.6719C638.25 100.234 631.781 101.969 626.062 104.875C620.344 107.781 615.328 111.578 611.016 116.266C606.703 120.859 603 126.156 599.906 132.156C596.906 138.062 594.422 144.344 592.453 151C590.578 157.656 589.172 164.547 588.234 171.672C587.391 178.703 586.969 185.641 586.969 192.484C586.969 199.328 587.391 206.312 588.234 213.438C589.172 220.469 590.625 227.312 592.594 233.969C594.562 240.625 597.047 246.906 600.047 252.812C603.141 258.719 606.844 263.969 611.156 268.562C615.562 273.062 620.578 276.719 626.203 279.531C631.922 282.344 638.344 284.031 645.469 284.594C652.781 284.031 659.297 282.344 665.016 279.531C670.734 276.625 675.75 272.922 680.062 268.422C684.469 263.828 688.172 258.578 691.172 252.672C694.266 246.672 696.75 240.391 698.625 233.828C700.594 227.172 702 220.328 702.844 213.297C703.781 206.172 704.25 199.234 704.25 192.484C704.25 185.641 703.781 178.703 702.844 171.672C702 164.547 700.594 157.656 698.625 151C696.75 144.25 694.266 137.922 691.172 132.016C688.172 126.016 684.469 120.719 680.062 116.125C675.75 111.531 670.688 107.781 664.875 104.875C659.156 101.969 652.688 100.234 645.469 99.6719ZM640.547 290.641C631.266 290.641 622.969 289.281 615.656 286.562C608.344 283.75 601.875 280 596.25 275.312C590.719 270.531 585.984 264.953 582.047 258.578C578.203 252.203 575.016 245.406 572.484 238.188C570.047 230.875 568.266 223.328 567.141 215.547C566.016 207.672 565.453 199.984 565.453 192.484C565.453 184.984 566.016 177.344 567.141 169.562C568.266 161.688 570.047 154.094 572.484 146.781C574.922 139.469 578.109 132.578 582.047 126.109C585.984 119.641 590.719 114.016 596.25 109.234C601.781 104.453 608.203 100.656 615.516 97.8438C622.922 95.0312 631.266 93.625 640.547 93.625C649.078 93.625 656.719 95.0312 663.469 97.8438C670.219 100.562 676.125 104.359 681.188 109.234C686.344 114.016 690.75 119.641 694.406 126.109C698.062 132.578 701.016 139.469 703.266 146.781C705.609 154.094 707.297 161.688 708.328 169.562C709.453 177.344 710.016 184.984 710.016 192.484C710.016 199.984 709.5 207.625 708.469 215.406C707.438 223.094 705.75 230.594 703.406 237.906C701.156 245.125 698.203 251.969 694.547 258.438C690.984 264.812 686.625 270.391 681.469 275.172C676.312 279.953 670.359 283.75 663.609 286.562C656.859 289.281 649.172 290.641 640.547 290.641ZM640.547 300.766C647.016 300.766 654 300.109 661.5 298.797C669 297.484 676.453 295.234 683.859 292.047C691.359 288.859 698.578 284.594 705.516 279.25C712.453 273.906 718.547 267.25 723.797 259.281C729.141 251.219 733.406 241.703 736.594 230.734C739.781 219.672 741.375 206.922 741.375 192.484C741.375 178.328 739.781 165.812 736.594 154.938C733.5 143.969 729.328 134.453 724.078 126.391C718.828 118.328 712.781 111.578 705.938 106.141C699.094 100.703 691.922 96.3437 684.422 93.0625C676.922 89.6875 669.375 87.2969 661.781 85.8906C654.281 84.3906 647.203 83.6406 640.547 83.6406C634.078 83.6406 626.953 84.2969 619.172 85.6094C611.391 86.8281 603.562 89.0312 595.688 92.2188C587.812 95.3125 580.172 99.5312 572.766 104.875C565.359 110.219 558.797 116.922 553.078 124.984C547.359 133.047 542.766 142.656 539.297 153.812C535.828 164.875 534.094 177.766 534.094 192.484C534.094 206.734 535.734 219.297 539.016 230.172C542.391 241.047 546.844 250.516 552.375 258.578C557.906 266.547 564.281 273.25 571.5 278.688C578.812 284.031 586.406 288.344 594.281 291.625C602.156 294.906 610.078 297.25 618.047 298.656C626.016 300.062 633.516 300.766 640.547 300.766ZM645.469 307.094C626.625 307.094 609.938 304.328 595.406 298.797C580.875 293.359 568.641 285.672 558.703 275.734C548.766 265.703 541.219 253.656 536.062 239.594C530.906 225.438 528.328 209.734 528.328 192.484C528.328 175.234 530.906 159.578 536.062 145.516C541.219 131.359 548.766 119.313 558.703 109.375C568.641 99.3438 580.875 91.6094 595.406 86.1719C609.938 80.6406 626.625 77.875 645.469 77.875C663.188 77.875 679.266 80.4062 693.703 85.4688C708.234 90.5312 720.609 97.9375 730.828 107.688C741.141 117.344 749.062 129.297 754.594 143.547C760.219 157.797 763.031 174.109 763.031 192.484C763.031 210.953 760.219 227.312 754.594 241.562C749.062 255.719 741.141 267.672 730.828 277.422C720.609 287.172 708.234 294.531 693.703 299.5C679.266 304.562 663.188 307.094 645.469 307.094ZM852.188 97.9844H852.469C858.281 97.6094 865.781 97.4219 874.969 97.4219C889.219 97.4219 900.094 101.828 907.594 110.641C915.188 119.453 918.984 130.891 918.984 144.953C918.984 159.203 915.516 171.578 908.578 182.078C901.734 192.484 891 197.688 876.375 197.688C867.75 197.688 859.219 196.609 850.781 194.453C850.781 161.453 851.25 129.297 852.188 97.9844ZM913.219 144.953C913.219 132.859 909.562 122.688 902.25 114.438C895.031 106.187 885.469 102.531 873.562 103.469C872.812 139.562 872.438 168.484 872.438 190.234C874.312 190.797 877.172 191.266 881.016 191.641C891.984 190.422 900.094 185.266 905.344 176.172C910.594 167.078 913.219 156.672 913.219 144.953ZM825.188 275.734C825 282.672 814.125 287.172 792.562 289.234C791.812 290.734 791.812 292.938 792.562 295.844C808.5 295.281 824.859 295 841.641 295C861.609 295 880.781 295.281 899.156 295.844C899.906 294.344 899.906 292.141 899.156 289.234C868.031 287.359 852.375 282.859 852.188 275.734C851.25 249.391 850.781 225.859 850.781 205.141C861.375 207.297 871.172 208.375 880.172 208.375C895.547 236.969 915.797 265.844 940.922 295C945.703 295 952.594 295.047 961.594 295.141C970.688 295.234 978.844 295.328 986.062 295.422C993.375 295.516 1000.31 295.656 1006.88 295.844C1007.62 294.156 1007.62 291.953 1006.88 289.234C991.5 288.109 978.516 284.359 967.922 277.984C957.422 271.516 945.141 259.609 931.078 242.266C921.516 230.172 912.891 217.422 905.203 204.016C919.078 199.422 930 191.781 937.969 181.094C945.938 170.406 949.922 158.359 949.922 144.953C949.922 128.078 944.484 114.438 933.609 104.031C922.734 93.5312 907.688 88.2812 888.469 88.2812C825.094 89.0312 793.219 89.0312 792.844 88.2812C792.281 90.5312 792.281 92.7344 792.844 94.8906C814.406 96.9531 825.281 101.453 825.469 108.391C826.406 130.422 826.875 156.625 826.875 187C826.875 216.719 826.312 246.297 825.188 275.734ZM819.422 275.453C820.547 252.016 821.109 222.531 821.109 187C821.109 156.812 820.641 130.703 819.703 108.672C819.516 105.203 809.062 102.438 788.344 100.375C786.75 94.1875 786.938 88.1406 788.906 82.2344C799.219 82.7969 810.422 83.0781 822.516 83.0781C834.609 83.0781 848.484 82.9844 864.141 82.7969C879.797 82.6094 891.281 82.5156 898.594 82.5156C921.281 82.5156 939.094 88.2812 952.031 99.8125C964.969 111.25 971.438 126.297 971.438 144.953C971.438 158.172 967.641 170.359 960.047 181.516C952.453 192.672 942.234 201.109 929.391 206.828C935.766 217.234 943.172 227.922 951.609 238.891C961.547 252.109 971.297 262.609 980.859 270.391C990.516 278.172 1001.2 282.625 1012.92 283.75C1014.42 289.75 1014.23 295.797 1012.36 301.891C998.953 301.516 974.297 301.141 938.391 300.766C912.047 270.016 891.469 241.141 876.656 214.141H872.438C872.438 231.578 872.906 252.016 873.844 275.453C873.844 276.016 874.078 276.578 874.547 277.141C875.016 277.703 876.844 278.594 880.031 279.812C883.219 281.031 888.047 282.109 894.516 283.047C901.078 283.891 904.734 284.406 905.484 284.594C907.078 289.844 906.797 295.609 904.641 301.891C870.047 301.141 849.047 300.766 841.641 300.766C836.578 300.766 818.906 301.141 788.625 301.891C786.281 295.422 786.281 289.375 788.625 283.75C808.969 281.688 819.234 278.922 819.422 275.453ZM1055.67 273.625C1055.3 282.156 1044.94 287.359 1024.59 289.234C1023.84 290.734 1023.84 292.938 1024.59 295.844C1042.31 295.281 1054.88 295 1062.28 295C1074 295 1087.36 295.281 1102.36 295.844C1103.11 292.938 1103.11 290.734 1102.36 289.234C1081.83 287.359 1071.47 282.156 1071.28 273.625C1070.34 244.469 1069.88 219.062 1069.88 197.406C1069.88 167.781 1070.25 141.578 1071 118.797H1072.41L1141.03 291.484H1142.44L1206.56 122.172H1207.83C1208.77 150.391 1209.23 175.469 1209.23 197.406C1209.23 227.875 1208.77 253.891 1207.83 275.453C1207.64 277.891 1206.52 280 1204.45 281.781C1202.48 283.469 1199.53 284.828 1195.59 285.859C1191.66 286.797 1188.33 287.453 1185.61 287.828C1182.89 288.203 1179.42 288.578 1175.2 288.953C1174.45 290.453 1174.45 292.656 1175.2 295.562C1191.14 295 1207.45 294.719 1224.14 294.719C1244.11 294.719 1263.33 295 1281.8 295.562C1282.55 293.875 1282.55 291.672 1281.8 288.953C1250.67 287.078 1235.02 282.672 1234.83 275.734C1233.7 246.297 1233.14 216.719 1233.14 187C1233.14 158.219 1233.52 132.016 1234.27 108.391C1234.45 101.453 1250.11 97.0469 1281.23 95.1719C1281.98 92.4531 1281.98 90.25 1281.23 88.5625C1262.77 89.125 1238.2 89.4062 1207.55 89.4062L1147.64 245.781L1089.98 89.4062C1067.11 89.4062 1046.86 89.0312 1029.23 88.2812C1028.3 90.1562 1028.3 91.9375 1029.23 93.625C1040.39 95.2187 1047.66 97.5625 1051.03 100.656C1054.5 103.656 1056.33 110.641 1056.52 121.609C1057.17 144.672 1057.5 166.469 1057.5 187C1057.5 215.406 1056.89 244.281 1055.67 273.625ZM1049.91 273.625C1051.12 244.094 1051.73 215.219 1051.73 187C1051.73 166.469 1051.41 144.672 1050.75 121.609C1050.56 112.984 1048.88 107.453 1045.69 105.016C1042.59 102.484 1035.84 100.516 1025.44 99.1094C1022.81 93.3906 1022.91 87.7656 1025.72 82.2344C1047.28 83.1719 1075.31 83.6406 1109.81 83.6406L1155.94 206.828L1203.47 83.6406C1228.59 83.6406 1256.34 83.2656 1286.72 82.5156C1288.59 88.6094 1288.78 94.6562 1287.28 100.656C1266.56 102.719 1256.11 105.484 1255.92 108.953C1255.08 126.578 1254.66 152.594 1254.66 187C1254.66 222.531 1255.27 251.922 1256.48 275.172C1256.67 278.641 1267.12 281.406 1287.84 283.469C1289.34 289.469 1289.16 295.516 1287.28 301.609C1256.91 300.859 1239.23 300.484 1234.27 300.484C1226.77 300.484 1205.77 300.859 1171.27 301.609C1168.92 295.047 1168.92 289 1171.27 283.469C1191.61 281.406 1201.88 278.734 1202.06 275.453C1203 253.516 1203.47 227.5 1203.47 197.406C1203.47 173.969 1203.38 156.766 1203.19 145.797L1146.38 297.25H1136.95L1075.64 142.703V197.406C1075.64 219.062 1076.11 244.469 1077.05 273.625C1077.23 278.688 1087.5 282.062 1107.84 283.75C1110.19 289.375 1110.19 295.422 1107.84 301.891C1079.81 300.766 1050.7 300.766 1020.52 301.891C1018.27 295.422 1018.27 289.375 1020.52 283.75C1039.92 281.875 1049.72 278.5 1049.91 273.625Z" fill="url(#paint1_linear)"/>
<defs>
<linearGradient id="paint0_linear" x1="642" y1="143" x2="642" y2="237" gradientUnits="userSpaceOnUse">
<stop stop-color="#F88A36"/>
<stop offset="1" stop-color="#FD2020"/>
</linearGradient>
<linearGradient id="paint1_linear" x1="647.5" y1="0" x2="647.5" y2="380" gradientUnits="userSpaceOnUse">
<stop stop-color="#F88A36"/>
<stop offset="1" stop-color="#FD2020"/>
</linearGradient>
</defs>
</svg>
